<svg width="15" height="14" viewBox="0 0 15 14" fill="none" xmlns="http://www.w3.org/2000/svg">
<path d="M1.31467 10.8889H6.75911C6.97394 10.8889 7.148 10.7148 7.148 10.5C7.148 10.2852 6.97394 10.1111 6.75911 10.1111H1.70356V4.66667H13.3702V6.61111C13.3702 6.82593 13.5443 7 13.7591 7C13.9739 7 14.148 6.82593 14.148 6.61111V4.27778C14.148 4.21058 14.1272 4.13544 14.0926 4.07773L11.7593 0.188844C11.689 0.0717111 11.5624 0 11.4258 0H3.648C3.51143 0 3.3848 0.0717111 3.31449 0.188844L0.981159 4.07773C0.946626 4.13544 0.925781 4.21058 0.925781 4.27778V10.5C0.925781 10.7148 1.09985 10.8889 1.31467 10.8889ZM7.92578 0.777778H11.2055L13.0722 3.88889H7.92578V0.777778ZM3.86827 0.777778H7.148V3.88889H2.0016L3.86827 0.777778Z" fill="white"/>
<path d="M11.4258 7C9.4958 7 7.92578 8.57018 7.92578 10.5C7.92578 12.4298 9.4958 14 11.4258 14C13.3558 14 14.9258 12.4298 14.9258 10.5C14.9258 8.57018 13.3558 7 11.4258 7ZM11.4258 13.2222C9.92483 13.2222 8.70356 12.001 8.70356 10.5C8.70356 8.99904 9.92483 7.77778 11.4258 7.77778C12.9267 7.77778 14.148 8.99904 14.148 10.5C14.148 12.001 12.9267 13.2222 11.4258 13.2222Z" fill="white"/>
<path d="M12.7054 9.44734L11.036 11.1169L10.1443 10.2253C9.99252 10.0733 9.74612 10.0733 9.59445 10.2253C9.44247 10.3773 9.44247 10.6233 9.59445 10.7752L10.7611 11.9418C10.8369 12.0177 10.9364 12.0557 11.036 12.0557C11.1355 12.0557 11.2351 12.0177 11.311 11.9418L13.2555 9.99739C13.4074 9.84541 13.4074 9.59932 13.2555 9.4475C13.1036 9.29552 12.8572 9.29552 12.7054 9.44734Z" fill="white"/>
</svg>
