<svg width="15" height="10" viewBox="0 0 15 10" fill="none" xmlns="http://www.w3.org/2000/svg">
<path d="M13.9976 3.98033L12.9879 3.4395L11.4904 0.230333C11.4246 0.0891667 11.2899 0 11.1426 0H1.03147C0.816645 0 0.642578 0.1865 0.642578 0.416667V7.91667C0.642578 8.14683 0.816645 8.33333 1.03147 8.33333H2.23733C2.41793 9.28317 3.20349 10 4.14258 10C5.08167 10 5.86722 9.28317 6.04782 8.33333H9.23733C9.41793 9.28317 10.2035 10 11.1426 10C12.0817 10 12.8672 9.28317 13.0478 8.33333H14.2537C14.4685 8.33333 14.6426 8.14683 14.6426 7.91667V5.09833C14.6426 4.62167 14.3954 4.19333 13.9976 3.98033ZM8.42036 0.833333H10.9022L12.0689 3.33333H8.42036V0.833333ZM4.14258 9.16667C3.4992 9.16667 2.97591 8.606 2.97591 7.91667C2.97591 7.22733 3.4992 6.66667 4.14258 6.66667C4.78596 6.66667 5.30925 7.22733 5.30925 7.91667C5.30925 8.606 4.78596 9.16667 4.14258 9.16667ZM11.1426 9.16667C10.4992 9.16667 9.97591 8.606 9.97591 7.91667C9.97591 7.22733 10.4992 6.66667 11.1426 6.66667C11.786 6.66667 12.3092 7.22733 12.3092 7.91667C12.3092 8.606 11.786 9.16667 11.1426 9.16667ZM13.8648 7.5H13.0478C12.8672 6.55017 12.0817 5.83333 11.1426 5.83333C10.2035 5.83333 9.41793 6.55017 9.23733 7.5H6.04782C5.86722 6.55017 5.08167 5.83333 4.14258 5.83333C3.20349 5.83333 2.41793 6.55017 2.23733 7.5H1.42036V0.833333H7.64258V3.75C7.64258 3.98017 7.81665 4.16667 8.03147 4.16667H12.6062L13.6498 4.72567C13.7825 4.79667 13.8648 4.9395 13.8648 5.09833V7.5Z" fill="white"/>
</svg>
