<svg width="14" height="10" viewBox="0 0 14 10" fill="none" xmlns="http://www.w3.org/2000/svg">
<path d="M0 1.2037V8.42593C0 9.08973 0.539901 9.62963 1.2037 9.62963H12.4383C13.1021 9.62963 13.642 9.08973 13.642 8.42593V1.2037C13.642 0.539901 13.1021 0 12.4383 0H1.2037C0.539901 0 0 0.539901 0 1.2037ZM12.8395 1.2037V8.42593C12.8395 8.64709 12.6596 8.82716 12.4383 8.82716H1.2037C0.982383 8.82716 0.802469 8.64709 0.802469 8.42593V1.2037C0.802469 0.982543 0.982383 0.802469 1.2037 0.802469H12.4383C12.6596 0.802469 12.8395 0.982543 12.8395 1.2037Z" fill="white"/>
<path d="M2.0067 6.41966H3.21041C3.43205 6.41966 3.61164 6.24006 3.61164 6.01842C3.61164 5.79678 3.43205 5.61719 3.21041 5.61719H2.0067C1.78506 5.61719 1.60547 5.79678 1.60547 6.01842C1.60547 6.24006 1.78506 6.41966 2.0067 6.41966Z" fill="white"/>
<path d="M4.41406 6.01842C4.41406 6.24006 4.59366 6.41966 4.8153 6.41966H6.019C6.24064 6.41966 6.42024 6.24006 6.42024 6.01842C6.42024 5.79678 6.24064 5.61719 6.019 5.61719H4.8153C4.59366 5.61719 4.41406 5.79678 4.41406 6.01842Z" fill="white"/>
<path d="M7.62389 6.41966H8.82759C9.04924 6.41966 9.22883 6.24006 9.22883 6.01842C9.22883 5.79678 9.04924 5.61719 8.82759 5.61719H7.62389C7.40225 5.61719 7.22266 5.79678 7.22266 6.01842C7.22266 6.24006 7.40225 6.41966 7.62389 6.41966Z" fill="white"/>
<path d="M10.4325 6.41966H11.6362C11.8578 6.41966 12.0374 6.24006 12.0374 6.01842C12.0374 5.79678 11.8578 5.61719 11.6362 5.61719H10.4325C10.2108 5.61719 10.0312 5.79678 10.0312 6.01842C10.0312 6.24006 10.2108 6.41966 10.4325 6.41966Z" fill="white"/>
<path d="M2.0067 4.81463H4.41411C4.63575 4.81463 4.81535 4.63504 4.81535 4.4134V2.80846C4.81535 2.58682 4.63575 2.40723 4.41411 2.40723H2.0067C1.78506 2.40723 1.60547 2.58682 1.60547 2.80846V4.4134C1.60547 4.63504 1.78506 4.81463 2.0067 4.81463ZM2.40794 3.2097H4.01288V4.01216H2.40794V3.2097Z" fill="white"/>
<path d="M2.0067 8.02464H4.81535C5.03699 8.02464 5.21658 7.84504 5.21658 7.6234C5.21658 7.40176 5.03699 7.22217 4.81535 7.22217H2.0067C1.78506 7.22217 1.60547 7.40176 1.60547 7.6234C1.60547 7.84504 1.78506 8.02464 2.0067 8.02464Z" fill="white"/>
</svg>
